{
	"asset":{
		"generator":"Khronos glTF Blender I/O v4.1.63",
		"version":"2.0"
	},
	"scene":0,
	"scenes":[
		{
			"name":"Scene",
			"nodes":[
				0
			]
		}
	],
	"nodes":[
		{
			"mesh":0,
			"name":"Plane.002_P-0301_B_(PIPA_TENGAH2)_0"
		}
	],
	"meshes":[
		{
			"name":"Plane.002_P-0301_B_(PIPA_TENGAH2)_0",
			"primitives":[
				{
					"attributes":{
						"POSITION":0,
						"NORMAL":1,
						"TEXCOORD_0":2
					},
					"indices":3
				}
			]
		}
	],
	"accessors":[
		{
			"bufferView":0,
			"componentType":5126,
			"count":186076,
			"max":[
				0.9395638704299927,
				0.7349816560745239,
				2.0633397102355957
			],
			"min":[
				-0.8425204753875732,
				-0.011386215686798096,
				-0.007590055465698242
			],
			"type":"VEC3"
		},
		{
			"bufferView":1,
			"componentType":5126,
			"count":186076,
			"type":"VEC3"
		},
		{
			"bufferView":2,
			"componentType":5126,
			"count":186076,
			"type":"VEC2"
		},
		{
			"bufferView":3,
			"componentType":5125,
			"count":408030,
			"type":"SCALAR"
		}
	],
	"bufferViews":[
		{
			"buffer":0,
			"byteLength":2232912,
			"byteOffset":0,
			"target":34962
		},
		{
			"buffer":0,
			"byteLength":2232912,
			"byteOffset":2232912,
			"target":34962
		},
		{
			"buffer":0,
			"byteLength":1488608,
			"byteOffset":4465824,
			"target":34962
		},
		{
			"buffer":0,
			"byteLength":1632120,
			"byteOffset":5954432,
			"target":34963
		}
	],
	"buffers":[
		{
			"byteLength":7586552,
			"uri":"machine.bin"
		}
	]
}
